<svg width="512" height="512" viewBox="0 0 512 512" fill="none" xmlns="http://www.w3.org/2000/svg">
<rect width="512" height="512" rx="95" fill="url(#paint0_linear_124_273)"/>
<path d="M336.604 138.535L175.354 138.663C173.11 138.664 171.964 139.304 170.583 140.85C169.203 142.394 167.925 145.011 167.042 148.059L150.604 204.809C160.933 206.701 200.579 213.288 255.979 213.288C311.442 213.288 351.107 206.604 361.375 204.705L344.917 147.934C344.033 144.887 342.754 142.288 341.375 140.747C339.995 139.2 338.848 138.537 336.604 138.538V138.535ZM138.333 174.869L122.437 175.477C111.719 175.883 106.667 191.471 106.667 197.494C106.667 202.137 111.717 201.946 111.75 201.953L135.458 201.036L139.917 205.515C140.399 206.058 140.987 206.496 141.645 206.803C142.303 207.111 143.017 207.281 143.743 207.303C144.468 207.325 145.191 207.198 145.866 206.93C146.542 206.663 147.155 206.261 147.669 205.748C148.184 205.235 148.588 204.623 148.857 203.949C149.126 203.274 149.255 202.552 149.235 201.826C149.215 201.1 149.047 200.386 148.742 199.727C148.436 199.068 148 198.479 147.458 197.995L143.708 194.223V182.244C143.708 179.404 143.709 174.664 138.333 174.869V174.869ZM389 175.973L373.083 176.603C367.707 176.806 367.708 181.533 367.708 184.373V194.978L363.979 198.686C363.466 199.176 363.057 199.764 362.774 200.414C362.491 201.064 362.341 201.765 362.332 202.474C362.323 203.183 362.456 203.887 362.722 204.544C362.988 205.202 363.383 205.799 363.883 206.302C364.383 206.805 364.979 207.203 365.635 207.473C366.29 207.743 366.994 207.879 367.703 207.874C368.412 207.869 369.113 207.723 369.765 207.444C370.417 207.165 371.007 206.759 371.5 206.249L375.167 202.581L399.687 201.643C399.72 201.633 404.771 201.451 404.771 196.809C404.771 190.785 399.718 175.57 389 175.975V175.973ZM366.479 214.64C362.615 215.408 318.326 223.952 255.979 223.952C194.124 223.952 150.209 215.64 145.729 214.765L117.312 241.598V327.244C117.315 327.351 117.315 327.446 117.312 327.553C117.211 329.218 118.735 330.659 120.521 330.658H171.646C173.87 324.478 179.747 319.973 186.646 319.971L325.312 319.864C332.226 319.862 338.121 324.373 340.333 330.572H391.437C393.229 330.571 394.614 329.223 394.646 327.072V241.488L366.479 214.635V214.64ZM378.479 255.827C381.489 255.721 383.98 258.149 383.979 261.161V293.327V303.827C383.979 306.773 381.591 309.161 378.646 309.161H335.979C332.976 309.162 330.56 306.684 330.646 303.682C330.988 292.193 334.522 281.085 342.333 272.432C350.145 263.778 362.017 257.842 377.979 255.869C378.145 255.869 378.312 255.876 378.479 255.869L378.479 255.827ZM325.312 255.827C328.93 255.835 331.491 259.366 330.375 262.807L316.521 305.494C315.806 307.696 313.753 309.186 311.437 309.182H200.5C198.192 309.176 196.15 307.688 195.437 305.494L181.562 262.932C180.426 259.476 183.007 255.921 186.646 255.932L325.312 255.825V255.827ZM132.896 255.934C133.068 255.94 133.243 255.932 133.417 255.934H133.958C150.077 257.936 162.018 263.749 169.833 272.372C177.648 280.994 181.081 292.124 181.312 303.788C181.382 306.783 178.974 309.247 175.979 309.247H133.312C130.367 309.247 127.979 306.858 127.979 303.913V293.393V261.247C127.971 258.456 130.114 256.127 132.896 255.913L132.896 255.934ZM317.958 266.476L193.979 266.583L197.458 277.249L314.5 277.143L317.958 266.476ZM373.312 268.122C362.989 270.415 355.114 274.233 350.25 279.622C345.711 284.65 344.451 291.578 343.333 298.538H373.312V293.372V268.122ZM138.646 268.229V293.479V298.666H168.708C167.667 291.595 166.457 284.61 161.937 279.623C157.105 274.291 149.142 270.522 138.646 268.227V268.229ZM311.021 287.874L200.917 287.981L204.375 298.564H307.562L311.021 287.876V287.874ZM351.75 341.249C351.881 341.729 351.946 342.23 351.937 342.729V354.833C351.937 359.293 355.297 362.647 359.562 362.645H376.333C380.597 362.644 383.937 359.293 383.937 354.833V341.249H351.75V341.249ZM127.812 341.356C127.922 341.815 127.987 342.273 127.979 342.752V354.856C127.979 359.317 131.318 362.671 135.583 362.669H152.354C156.618 362.668 159.979 359.317 159.979 354.856V341.356H127.812H127.812Z" fill="white"/>
<defs>
<linearGradient id="paint0_linear_124_273" x1="256" y1="512" x2="256" y2="-1.36685e-05" gradientUnits="userSpaceOnUse">
<stop stop-color="#1D62F0"/>
<stop offset="1" stop-color="#1AD5FD"/>
</linearGradient>
</defs>
</svg>
